<svg width="40" height="40" viewBox="0 0 40 40" fill="none" xmlns="http://www.w3.org/2000/svg">
    <mask id="mask0_44_48" style="mask-type:luminance" maskUnits="userSpaceOnUse" x="1" y="1" width="38" height="38">
        <path d="M39 1H1V39H39V1Z" fill="white"/>
    </mask>
    <g mask="url(#mask0_44_48)">
        <path d="M20 39C30.4934 39 39 30.4934 39 20C39 9.50659 30.4934 1 20 1C9.50659 1 1 9.50659 1 20C1 30.4934 9.50659 39 20 39Z" fill="#2EE1B6"/>
        <mask id="mask1_44_48" style="mask-type:luminance" maskUnits="userSpaceOnUse" x="14" y="14" width="12" height="12">
            <path d="M25.3334 14.6667H14.6667V25.3334H25.3334V14.6667Z" fill="white"/>
        </mask>
        <g mask="url(#mask1_44_48)">
            <path d="M24.4662 14.6982L17.8002 16.6667C17.6649 16.7092 17.5467 16.7938 17.4627 16.9081C17.3787 17.0224 17.3334 17.1605 17.3333 17.3023V22.7484C17.115 22.6954 16.8913 22.668 16.6667 22.6667C15.5625 22.6667 14.6667 23.2638 14.6667 24C14.6667 24.7363 15.5625 25.3334 16.6667 25.3334C17.7708 25.3334 18.6667 24.7363 18.6667 24V19.1317L24 17.5692V21.4152C23.7817 21.3621 23.558 21.3346 23.3333 21.3334C22.2292 21.3334 21.3333 21.9304 21.3333 22.6667C21.3333 23.4029 22.2292 24 23.3333 24C24.4375 24 25.3333 23.4032 25.3333 22.6667V15.3334C25.3332 15.2287 25.3085 15.1255 25.2611 15.0322C25.2137 14.9389 25.1451 14.858 25.0606 14.7962C24.9762 14.7343 24.8784 14.6932 24.7751 14.6762C24.6719 14.6592 24.5661 14.6667 24.4662 14.6982Z" fill="white"/>
        </g>
        <mask id="mask2_44_48" style="mask-type:luminance" maskUnits="userSpaceOnUse" x="7" y="11" width="6" height="18">
            <path d="M13 11H7V29H13V11Z" fill="white"/>
        </mask>
        <g mask="url(#mask2_44_48)">
            <path d="M7 20.0282V19.1563C7.81463 19.1563 8.38293 18.9922 8.70488 18.6641C9.03171 18.336 9.19512 17.7875 9.19512 17.0188V14.7688C9.19512 14.1219 9.25853 13.5617 9.38537 13.0883C9.51707 12.6148 9.72927 12.2234 10.0219 11.9141C10.3146 11.6047 10.7049 11.375 11.1927 11.225C11.6805 11.075 12.2829 11 13 11V12.3781C12.4341 12.3781 11.9878 12.4625 11.661 12.6313C11.339 12.8 11.1098 13.0625 10.9732 13.4188C10.8415 13.7703 10.7756 14.2203 10.7756 14.7688V17.5813C10.7756 17.9469 10.7244 18.2797 10.622 18.5797C10.5244 18.8797 10.3415 19.1375 10.0732 19.3532C9.80487 19.5688 9.42195 19.7352 8.92439 19.8524C8.43171 19.9696 7.79024 20.0282 7 20.0282ZM13 29C12.2829 29 11.6805 28.9251 11.1927 28.7751C10.7049 28.6251 10.3146 28.3953 10.0219 28.0861C9.72927 27.7765 9.51707 27.3851 9.38537 26.9118C9.25853 26.4384 9.19512 25.8782 9.19512 25.2313V22.9813C9.19512 22.2125 9.03171 21.6641 8.70488 21.336C8.38293 21.0078 7.81463 20.8438 7 20.8438V19.9719C7.79024 19.9719 8.43171 20.0305 8.92439 20.1477C9.42195 20.2649 9.80487 20.4313 10.0732 20.6469C10.3415 20.8625 10.5244 21.1203 10.622 21.4203C10.7244 21.7203 10.7756 22.0532 10.7756 22.4188V25.2313C10.7756 25.7797 10.8415 26.2298 10.9732 26.5813C11.1098 26.9329 11.339 27.1931 11.661 27.3617C11.9878 27.5351 12.4341 27.6219 13 27.6219V29ZM7 20.8438V19.1563H8.72682V20.8438H7Z" fill="white"/>
        </g>
        <mask id="mask3_44_48" style="mask-type:luminance" maskUnits="userSpaceOnUse" x="27" y="11" width="6" height="18">
            <path d="M27 29H33V11H27V29Z" fill="white"/>
        </mask>
        <g mask="url(#mask3_44_48)">
            <path d="M33 19.9718V20.8437C32.1854 20.8437 31.6171 21.0078 31.2951 21.3359C30.9683 21.664 30.8049 22.2125 30.8049 22.9812V25.2312C30.8049 25.8781 30.7415 26.4383 30.6146 26.9117C30.4829 27.3852 30.2707 27.7766 29.9781 28.0859C29.6854 28.3953 29.2951 28.625 28.8073 28.775C28.3195 28.925 27.7171 29 27 29V27.6219C27.5659 27.6219 28.0122 27.5375 28.339 27.3687C28.661 27.2 28.8902 26.9375 29.0268 26.5812C29.1585 26.2297 29.2244 25.7797 29.2244 25.2312V22.4187C29.2244 22.0531 29.2756 21.7203 29.378 21.4203C29.4756 21.1203 29.6585 20.8625 29.9268 20.6468C30.1951 20.4312 30.5781 20.2648 31.0756 20.1476C31.5683 20.0304 32.2098 19.9718 33 19.9718ZM27 11C27.7171 11 28.3195 11.0749 28.8073 11.2249C29.2951 11.3749 29.6854 11.6047 29.9781 11.9139C30.2707 12.2235 30.4829 12.6149 30.6146 13.0882C30.7415 13.5616 30.8049 14.1218 30.8049 14.7687V17.0187C30.8049 17.7875 30.9683 18.3359 31.2951 18.664C31.6171 18.9922 32.1854 19.1562 33 19.1562V20.0281C32.2098 20.0281 31.5683 19.9695 31.0756 19.8523C30.5781 19.7351 30.1951 19.5687 29.9268 19.3531C29.6585 19.1375 29.4756 18.8797 29.378 18.5797C29.2756 18.2797 29.2244 17.9468 29.2244 17.5812V14.7687C29.2244 14.2203 29.1585 13.7702 29.0268 13.4187C28.8902 13.0671 28.661 12.8069 28.339 12.6383C28.0122 12.4649 27.5659 12.3781 27 12.3781V11ZM33 19.1562V20.8437H31.2732V19.1562H33Z" fill="white"/>
        </g>
    </g>
</svg>
